<?xml version="1.0" encoding="utf-8"?>
<!-- Generator: Adobe Illustrator 24.1.3, SVG Export Plug-In . SVG Version: 6.00 Build 0)  -->
<svg version="1.1" id="Layer_1" xmlns="http://www.w3.org/2000/svg" xmlns:xlink="http://www.w3.org/1999/xlink" x="0px" y="0px"
	 viewBox="0 0 2156.2 122.2" style="enable-background:new 0 0 2156.2 122.2;" xml:space="preserve">
<style type="text/css">
	.st0{fill:#FEFEFE;}
	.st1{fill:#E0E0E0;}
	.st2{fill:#EFEFEF;}
	.st3{fill:#DCDCDC;}
	.st4{fill:#E1E1E1;}
	.st5{fill:#DDDDDD;}
</style>
<g id="FFYyNV_1_">
	<g>
		<path class="st0" d="M2143.1,65.6c0.4-10.8-3.9-18.9-13.2-24.1c-9.6-5.3-19.9-7.2-31-6.3c-21.7,1.9-38.6,12.2-52,28.7
			c-6,7.5-6.9,15.9-2.8,24.7c8.2,17.5,25.3,23.5,41.4,23.3c12.1-0.2,23.8-3.8,34.3-10.6C2133.1,92.8,2142.3,82,2143.1,65.6z
			 M1391.2,65.6c0.4-10.8-3.9-18.9-13.2-24.1c-9.6-5.3-19.9-7.3-31-6.3c-21.7,1.9-38.6,12.2-52,28.7c-6,7.5-6.9,15.9-2.8,24.7
			c8.2,17.5,25.3,23.5,41.4,23.3c12.1-0.2,23.8-3.8,34.3-10.6C1381.2,92.8,1390.4,82,1391.2,65.6z M59.4,12.3
			c-13.7,0.1-24,5.8-27.3,16c-3.6,11.1-3.1,22.4,1.3,33.1c7.6,18.2,20.8,31.3,39.1,39c6.5,2.7,13.2,5.7,20.6,2.9
			c16.4-6.2,23.4-25.5,20.4-41.6c-2-11.1-6.9-20.9-14.8-29.3C88,20.7,75.9,12.4,59.4,12.3z M692.4,12.3
			c-13.9,0.1-24.3,6.1-27.5,16.4c-3.3,10.9-3,22.1,1.4,32.6c7.6,18.2,20.8,31.4,39.1,39c6.5,2.7,13.2,5.7,20.6,3
			c16.3-6,23.6-25.8,20.4-42.1c-2.2-11.1-7.1-20.9-15-29.2C720.8,20.6,708.7,12.3,692.4,12.3z M1444.1,12.3
			c-13.8,0.1-24.2,6.2-27.3,16.7c-3.2,10.8-2.8,21.8,1.5,32.1c7.7,18.6,21.2,31.8,39.8,39.5c6.3,2.6,12.9,5.3,20.2,2.6
			c16.2-6.2,23.3-25.7,20.2-41.8c-2.1-11.1-7-20.9-14.9-29.3C1472.7,20.6,1460.6,12.3,1444.1,12.3z M172.8,30.4
			c-3.1-0.2-5.5,0.2-6.8,3.7c-3.9,11.1-8.1,22.1-12,33.2c-1.9,5.5-0.7,8.2,4.6,10.9c9.2,4.8,19.1,7.7,28.8,10.9
			c5,1.6,10.1,3.3,15.5,3.3c3.2,0,5.2-0.9,6.4-4.2c4.7-12.2,8.5-24.7,11.3-37.5c0.9-4.3-0.4-6.8-3.9-8.5
			C202.7,35.8,188,32.1,172.8,30.4z M836.7,92.5c2.3,0.3,4.4-1.1,5.7-4.7c3.7-9.8,7-19.6,9.5-29.8c3.3-13.6,3.4-13.8-9.6-18.8
			c-11.9-4.6-24.2-7.8-37.1-8.7c-2.9-0.2-5.1,0.5-6.2,3.6c-3.9,11.1-8.1,22.1-12,33.2c-1.9,5.5-0.7,8.2,4.6,10.9
			c9.2,4.8,19.1,7.7,28.8,10.9C825.2,90.6,830.2,92.1,836.7,92.5z M1587,92.7c4,0.3,6.1-1.4,7.5-5.2c3.6-9.8,7-19.7,9.4-29.8
			c3.2-13.2,3.3-13.5-9.5-18.4c-11.9-4.6-24.2-7.8-37-8.8c-2.8-0.2-5.2,0.2-6.4,3.4c-4,11.2-8.2,22.4-12.1,33.6
			c-1.8,5.2-0.5,7.9,4.5,10.5c9.3,4.9,19.4,7.8,29.3,11.1C1577.2,90.7,1582.2,91.5,1587,92.7z M1879.6,47.4
			c-8.7-0.2-16.9-0.1-25.1,1.8c-2.9,0.7-4.4,1.9-4.7,4.8c-1.3,12.5-2.8,25-2.8,37.5c0,3.9,2.7,6.1,6.7,6.7
			c13.3,2.1,26.7,3.3,40.1,2.9c12.1-0.4,11.4-1.9,11.9-11.9c0.5-11.4,1.8-22.7,0.4-34.2c-0.6-4.4-2.5-6.2-6.4-6.8
			C1892.9,47.4,1886.1,47.1,1879.6,47.4z M1127,47.4c-8,0-15.9-0.2-23.8,1.7c-3.2,0.8-5.1,1.9-5.4,5.4c-1.1,12.5-2.9,25-2.7,37.5
			c0.1,3.6,2.8,5.7,6.6,6.3c13.3,2.1,26.7,3,40.1,3c9.9,0,12.2-2.1,12.2-11.8c-0.1-11.4,1.8-22.7,0.2-34.2c-0.6-4.4-2.5-6.1-6.3-6.9
			C1140.9,47.1,1133.9,47.4,1127,47.4z M503.4,101.3c2.8,0,5.7,0.3,8.5-0.1c4.4-0.5,8.3-1.2,8.6-7.3c0.8-13.5,2-27,0.5-40.6
			c-0.4-3.2-2.9-4.2-5.6-4.8c-1.4-0.3-3-0.2-4.5-0.3c-13.8-1.3-27.5-1.6-41.1,1.1c-2.6,0.5-4.4,1.5-4.7,4.2
			c-1.5,12.8-2.9,25.6-2.9,38.5c0,3.6,2.9,5.6,6.5,6.3C480.2,100.5,491.8,100.5,503.4,101.3z M1697.4,107.3c3,0,6,0,9,0
			c2.3,0,3.9-1.1,4.3-3.3c0.6-3.2,0.8-6.5,1.2-9.8c0.4-3.4-1.2-5.1-4.4-6.1c-10.9-3.6-22.2-5-33.5-6.6c-1.8-0.3-3.8-0.2-5,1.5
			c-2.7,3.8-5.2,7.8-5.9,12.4c-0.9,5.7,1.5,9.1,7.2,9.7C1679.3,106,1688.3,107.5,1697.4,107.3z M312,107.3c3.4,0,5.9-0.1,8.4,0
			c3.4,0.3,4.9-1.5,5.5-4.5c0.5-2.6,0.8-5.2,1.1-7.8c0.5-3.9-1-6.1-4.9-7.3c-10.8-3.3-21.9-4.9-33-6.4c-1.8-0.2-3.8-0.2-5,1.5
			c-2.7,3.8-5.2,7.8-5.9,12.4c-0.9,5.8,1.7,9.3,7.6,9.8C294.9,106,303.9,107.6,312,107.3z M945,107.3c3.4,0,6.1-0.1,8.8,0
			c2.9,0.2,4.5-1.4,4.9-3.9c0.5-3.1,1.4-6.1,1.4-9.3c0-3.3-1.2-5.1-4.5-6.2c-10.9-3.6-22.2-5-33.5-6.6c-1.8-0.3-3.8-0.3-5,1.4
			c-2.7,3.8-5.2,7.8-6,12.4c-1,5.8,1.6,9.3,7.5,9.9C927.7,106,936.7,107.6,945,107.3z M1790.9,45.7c0,3.3-0.2,6.6,0,10
			c0.9,15.7,2.1,17.5,17.9,17.7c4.5,0,6-2,6.1-6.3c0.3-10.5-1.8-20.6-3.5-30.9c-2.2-13.9-5.5-10.9-15.3-9.3c-0.2,0-0.3,0.2-0.5,0.2
			c-4.2,0.2-5.1,2.6-4.9,6.3C1791.1,37.4,1790.9,41.6,1790.9,45.7z M1063,59.9c0.3-3.2-0.1-7.4-1-11.7c-0.8-3.7-1.5-7.4-2.2-11.2
			c-2.3-12.2-0.3-13.8-17.3-9.8c-2.7,0.6-3.5,2-3.5,4.5c0,9.3-0.3,18.6,0.2,27.9c0.2,3.8,0.2,8.8,3.4,11c5.2,3.5,11.9,4.1,17.7,2.1
			c5.1-1.7,2-7.3,2.7-11.1C1063,61.4,1063,61.3,1063,59.9z M406.1,45.5c0,3.5-0.2,7,0,10.5c1,15.3,1.9,17.3,17.7,17.4
			c4.8,0.1,6.3-1.9,6.4-6.6c0.3-10.2-1.4-20-3.3-30c-2.4-12.2-1.5-13-16.6-9.7c-3.4,0.7-4.3,2.3-4.2,5.4
			C406.2,36.8,406.1,41.2,406.1,45.5z M592.9,101.3c3.2,0,5.6-0.8,7.9-2.2c8.8-5.2,17.7-10.4,26.6-15.5c3.1-1.8,3.8-3.9,2.8-7.5
			c-0.9-3-3.4-4.8-4.4-7.7c-1-2.8-3-3.4-6-2.6c-9.5,2.5-18.3,6.7-27,11.1c-9.6,4.8-11.1,8.8-6.6,18.4
			C587.7,98.2,589,101.8,592.9,101.3z M1226.4,101.3c2.6,0.1,4.8-0.7,6.8-1.8c9.2-5.3,18.3-10.7,27.4-16c2.8-1.6,3.6-3.8,2.6-7.1
			c-0.9-2.8-3.2-4.7-4.1-7.3c-1.2-3.3-3.1-4.1-6.5-3.2c-11.4,2.9-21.5,8.4-31.9,13.6c-1.9,1-4,2.5-3.6,5c0.8,4.8,0.7,9.9,4,14.1
			C1222.6,100.5,1224.2,101.6,1226.4,101.3z M1978,101.3c2.9,0,5.2-0.7,7.4-2c9-5.3,18-10.5,27-15.7c2.8-1.6,3.8-3.6,2.8-7
			c-0.8-3-3.3-5-4.3-7.7c-1.1-3-3-3.8-6.2-3c-9.5,2.5-18.3,6.7-27,11.1c-9.5,4.7-11.1,8.9-6.5,18.5
			C1972.6,98.3,1973.9,101.9,1978,101.3z M575.1,59.2c0-7-5.7-12.8-12.5-12.8c-5.8,0-11.6,6-11.3,11.7c0.2,5.7,7,11.2,13.8,11.2
			C571,69.3,575.1,65.2,575.1,59.2z M1947.4,46.4c-5.6,0-11.1,5.5-11.3,11.2c-0.2,5.8,6.9,11.7,13.9,11.7c5.9-0.1,10-4.2,9.9-10.1
			C1959.9,52.2,1954.2,46.4,1947.4,46.4z M1208,59.4c0-7.6-4.5-11.5-12-12.2c-7.6-0.7-11.5,5.5-11.7,10.6
			c-0.2,5.7,6.7,11.3,13.6,11.4C1203.7,69.4,1208,65.3,1208,59.4z M1658,45.6c0-7.3-4.5-12.1-11.4-12.2c-7.2-0.1-11.5,3.9-11.6,10.6
			c-0.1,6.5,5.5,11.3,13,11.3C1654.1,55.4,1657.9,51.6,1658,45.6z M906,45.6c0-7.3-4.5-12.1-11.4-12.2c-7.2-0.1-11.5,3.9-11.6,10.7
			c-0.1,6.5,5.5,11.3,13.1,11.3C902.2,55.3,906,51.6,906,45.6z M273.1,45.3c0-7.2-4.7-11.9-11.7-11.9c-7.1,0-11.3,4.1-11.3,11
			c0,6.2,5.6,10.9,12.9,11C269.4,55.4,273.1,51.7,273.1,45.3z M351.4,70.3c6.4,0,10.6-3.5,10.7-9.2c0.2-7.7-6.1-11.9-12.8-12.7
			c-5.1-0.6-10.2,5.1-10.2,10.6C339,66,343.7,70.3,351.4,70.3z M984.5,70.3c6.4,0,10.5-3.6,10.6-9.3c0.1-7.7-6.5-12-12.9-12.6
			C977,48,972,53.6,972,59.3C972,66.1,976.7,70.3,984.5,70.3z M1736.1,70.3c6.7,0.1,10.8-3.6,10.9-9.5c0.1-7.7-7-12-13.1-12.4
			c-4.9-0.3-9.8,5.2-9.9,10.5C1723.8,65.9,1728.4,70.2,1736.1,70.3z"/>
		<path class="st1" d="M2143.1,65.6c-0.8,16.4-10,27.3-23.3,35.8c-10.5,6.8-22.2,10.4-34.3,10.6c-16.1,0.2-33.2-5.8-41.4-23.3
			c-4.1-8.8-3.2-17.2,2.8-24.7c13.4-16.6,30.2-26.8,52-28.7c11.1-1,21.4,0.9,31,6.3C2139.2,46.6,2143.5,54.8,2143.1,65.6z
			 M2083.5,97.4c11.4-0.7,21.2-5.3,28.7-14c6.3-7.4,6.5-15.4,1-22.2c-3.3-4.1-7.5-6.9-12.6-8.5c-13.9-4.2-27.6,2.7-35.3,13.4
			c-5.4,7.5-5.8,15.9-1.4,21.4C2068.7,93.7,2074.8,98.1,2083.5,97.4z"/>
		<path class="st1" d="M1391.2,65.6c-0.8,16.4-10,27.3-23.3,35.8c-10.5,6.8-22.2,10.4-34.3,10.6c-16.1,0.2-33.2-5.8-41.4-23.3
			c-4.1-8.8-3.2-17.2,2.8-24.7c13.4-16.6,30.2-26.8,52-28.7c11.1-1,21.4,0.9,31,6.3C1387.3,46.6,1391.6,54.8,1391.2,65.6z
			 M1331.7,97.2c3.4,0.7,6.9-0.5,10.3-1.8c6.1-2.3,11.8-5.3,16.4-10.1c10.7-11.1,7.4-26-7-31.7c-15.1-6-29.5,0.7-38.2,12.4
			c-5.5,7.4-5.9,15.9-1.5,21.4C1316.7,93.7,1322.8,98.1,1331.7,97.2z"/>
		<path class="st2" d="M59.4,12.3c16.5,0.1,28.6,8.4,39.4,20c7.9,8.4,12.8,18.2,14.8,29.3c3,16.1-4,35.5-20.4,41.6
			c-7.4,2.8-14.1-0.2-20.6-2.9c-18.3-7.6-31.5-20.8-39.1-39c-4.5-10.6-4.9-22-1.3-33.1C35.4,18.2,45.7,12.4,59.4,12.3z M99.1,67.3
			c1.6-11.5-10.8-26.8-24.3-31c-14.6-4.5-22.9,6.4-23.7,17c-1.3,15.9,9.3,27.4,23.1,31.9C87.7,89.7,99.1,81.5,99.1,67.3z"/>
		<path class="st2" d="M692.4,12.3c16.3,0,28.4,8.3,39,19.7c7.9,8.4,12.8,18.1,15,29.2c3.2,16.3-4.1,36.1-20.4,42.1
			c-7.4,2.7-14.1-0.2-20.6-3c-18.3-7.6-31.5-20.8-39.1-39c-4.4-10.5-4.8-21.6-1.4-32.6C668.1,18.4,678.5,12.4,692.4,12.3z M732,67.5
			c1.7-11.7-10.8-26.9-24.2-31.1c-14.9-4.7-23.1,6.8-23.9,17.3c-1.1,15.6,9.7,27.3,23.5,31.6C720.8,89.5,732,81.4,732,67.5z"/>
		<path class="st2" d="M1444.1,12.3c16.5-0.1,28.7,8.2,39.5,19.8c7.8,8.4,12.8,18.2,14.9,29.3c3.1,16.1-4,35.6-20.2,41.8
			c-7.3,2.8-13.9,0.1-20.2-2.6c-18.6-7.7-32.2-20.9-39.8-39.5c-4.3-10.3-4.7-21.3-1.5-32.1C1419.8,18.6,1430.2,12.4,1444.1,12.3z
			 M1484,67.4c1.7-11.6-10.8-26.9-24.3-31c-14.6-4.5-22.9,6.4-23.8,16.9c-1.3,15.9,9.2,27.4,23,31.9
			C1472.6,89.7,1484,81.5,1484,67.4z"/>
		<path class="st3" d="M172.8,30.4c15.2,1.7,29.9,5.4,43.9,11.8c3.5,1.6,4.9,4.1,3.9,8.5c-2.8,12.8-6.6,25.3-11.3,37.5
			c-1.2,3.3-3.2,4.2-6.4,4.2c-5.4-0.1-10.5-1.7-15.5-3.3c-9.7-3.2-19.6-6.2-28.8-10.9c-5.3-2.7-6.5-5.4-4.6-10.9
			c3.9-11.1,8.1-22.1,12-33.2C167.2,30.6,169.7,30.2,172.8,30.4z"/>
		<path class="st3" d="M836.7,92.5c-6.6-0.3-11.6-1.8-16.4-3.4c-9.7-3.2-19.6-6.2-28.8-10.9c-5.3-2.7-6.5-5.4-4.6-10.9
			c3.9-11.1,8.1-22.1,12-33.2c1.1-3.2,3.3-3.8,6.2-3.6c12.8,1,25.1,4.2,37.1,8.7c13,5,13,5.2,9.6,18.8c-2.5,10.1-5.8,20-9.5,29.8
			C841.1,91.4,839,92.8,836.7,92.5z"/>
		<path class="st3" d="M1587,92.7c-4.8-1.1-9.8-1.9-14.4-3.5c-9.9-3.4-19.9-6.3-29.3-11.1c-5-2.6-6.3-5.3-4.5-10.5
			c3.9-11.2,8.1-22.4,12.1-33.6c1.1-3.2,3.5-3.6,6.4-3.4c12.8,1,25.1,4.2,37,8.8c12.8,5,12.7,5.2,9.5,18.4
			c-2.4,10.2-5.8,20-9.4,29.8C1593.1,91.2,1591,92.9,1587,92.7z"/>
		<path class="st2" d="M1879.6,47.4c6.5-0.3,13.3,0,20,1c3.9,0.6,5.9,2.4,6.4,6.8c1.5,11.5,0.2,22.8-0.4,34.2
			c-0.5,9.9,0.2,11.5-11.9,11.9c-13.4,0.4-26.8-0.8-40.1-2.9c-3.9-0.6-6.7-2.8-6.7-6.7c0-12.6,1.4-25.1,2.8-37.5
			c0.3-2.9,1.9-4.2,4.7-4.8C1862.7,47.3,1871,47.2,1879.6,47.4z"/>
		<path class="st2" d="M1127,47.4c7,0,14-0.3,20.9,1c3.9,0.7,5.7,2.5,6.3,6.9c1.5,11.5-0.3,22.8-0.2,34.2
			c0.1,9.8-2.3,11.8-12.2,11.8c-13.4,0-26.8-0.9-40.1-3c-3.7-0.6-6.5-2.7-6.6-6.3c-0.3-12.6,1.6-25,2.7-37.5
			c0.3-3.4,2.2-4.6,5.4-5.4C1111.1,47.2,1119,47.4,1127,47.4z"/>
		<path class="st2" d="M503.4,101.3c-11.6-0.8-23.2-0.8-34.6-2.9c-3.7-0.7-6.5-2.7-6.5-6.3c-0.1-12.9,1.4-25.7,2.9-38.5
			c0.3-2.8,2.1-3.7,4.7-4.2c13.7-2.6,27.4-2.4,41.1-1.1c1.5,0.1,3,0,4.5,0.3c2.7,0.6,5.3,1.6,5.6,4.8c1.5,13.5,0.2,27-0.5,40.6
			c-0.3,6.1-4.2,6.8-8.6,7.3C509,101.5,506.2,101.3,503.4,101.3z"/>
		<path class="st4" d="M1697.4,107.3c-9.1,0.2-18.2-1.2-27.2-2.2c-5.7-0.6-8.1-4.1-7.2-9.7c0.7-4.7,3.2-8.6,5.9-12.4
			c1.2-1.7,3.2-1.8,5-1.5c11.3,1.6,22.6,3,33.5,6.6c3.2,1.1,4.8,2.7,4.4,6.1c-0.4,3.3-0.6,6.6-1.2,9.8c-0.4,2.2-2,3.3-4.3,3.3
			C1703.4,107.3,1700.4,107.3,1697.4,107.3z"/>
		<path class="st4" d="M312,107.3c-8.2,0.4-17.2-1.3-26.2-2.1c-6-0.6-8.6-4-7.6-9.8c0.7-4.6,3.2-8.6,5.9-12.4c1.2-1.7,3.2-1.8,5-1.5
			c11.1,1.5,22.2,3.1,33,6.4c3.9,1.2,5.5,3.4,4.9,7.3c-0.3,2.6-0.6,5.2-1.1,7.8c-0.5,3-2.1,4.7-5.5,4.5
			C318,107.1,315.5,107.3,312,107.3z"/>
		<path class="st4" d="M945,107.3c-8.3,0.3-17.3-1.3-26.4-2.2c-5.9-0.6-8.5-4.1-7.5-9.9c0.8-4.6,3.2-8.6,6-12.4
			c1.3-1.7,3.2-1.7,5-1.4c11.3,1.6,22.6,3,33.5,6.6c3.2,1.1,4.4,2.8,4.5,6.2c0,3.2-0.9,6.2-1.4,9.3c-0.4,2.5-2,4-4.9,3.9
			C951.1,107.1,948.5,107.3,945,107.3z"/>
		<path class="st5" d="M1790.9,45.7c0-4.1,0.2-8.3-0.1-12.4c-0.2-3.7,0.7-6.2,4.9-6.3c0.2,0,0.3-0.1,0.5-0.2
			c9.8-1.6,13.1-4.7,15.3,9.3c1.7,10.3,3.8,20.4,3.5,30.9c-0.1,4.4-1.6,6.4-6.1,6.3c-15.9-0.1-17-2-17.9-17.7
			C1790.8,52.4,1790.9,49.1,1790.9,45.7z"/>
		<path class="st5" d="M1063,59.9c0,1.3,0,1.5,0,1.7c-0.8,3.8,2.4,9.4-2.7,11.1c-5.8,2-12.6,1.4-17.7-2.1c-3.2-2.2-3.2-7.2-3.4-11
			c-0.4-9.3-0.1-18.6-0.2-27.9c0-2.5,0.7-3.8,3.5-4.5c17-3.9,15-2.3,17.3,9.8c0.7,3.7,1.4,7.5,2.2,11.2
			C1062.9,52.5,1063.3,56.8,1063,59.9z"/>
		<path class="st5" d="M406.1,45.5c0-4.3,0.1-8.6,0-12.9c-0.1-3.1,0.8-4.7,4.2-5.4c15.1-3.3,14.2-2.5,16.6,9.7
			c2,9.9,3.6,19.8,3.3,30c-0.1,4.6-1.6,6.6-6.4,6.6c-15.7-0.2-16.7-2.1-17.7-17.4C405.9,52.5,406.1,49,406.1,45.5z"/>
		<path class="st2" d="M592.9,101.3c-4,0.5-5.3-3.1-6.6-5.9c-4.6-9.6-3-13.7,6.6-18.4c8.7-4.4,17.5-8.6,27-11.1c3-0.8,5-0.2,6,2.6
			c1,2.9,3.5,4.7,4.4,7.7c1,3.5,0.2,5.7-2.8,7.5c-8.9,5.1-17.8,10.2-26.6,15.5C598.5,100.5,596.1,101.3,592.9,101.3z"/>
		<path class="st2" d="M1226.4,101.3c-2.2,0.3-3.8-0.7-5.3-2.6c-3.3-4.2-3.2-9.3-4-14.1c-0.4-2.4,1.7-4,3.6-5
			c10.3-5.2,20.5-10.7,31.9-13.6c3.5-0.9,5.3-0.1,6.5,3.2c1,2.6,3.3,4.4,4.1,7.3c1,3.3,0.2,5.4-2.6,7.1c-9.1,5.3-18.3,10.7-27.4,16
			C1231.2,100.6,1229,101.4,1226.4,101.3z"/>
		<path class="st2" d="M1978,101.3c-4.1,0.6-5.4-3-6.8-5.9c-4.6-9.6-3.1-13.7,6.5-18.5c8.7-4.4,17.5-8.6,27-11.1
			c3.2-0.8,5.1-0.1,6.2,3c1,2.8,3.5,4.7,4.3,7.7c0.9,3.4-0.1,5.4-2.8,7c-9,5.2-18,10.5-27,15.7
			C1983.2,100.6,1980.9,101.3,1978,101.3z"/>
		<path class="st5" d="M575.1,59.2c0,5.9-4.1,10-10,10.1c-6.8,0-13.6-5.5-13.8-11.2c-0.2-5.7,5.6-11.7,11.3-11.7
			C569.4,46.4,575,52.2,575.1,59.2z"/>
		<path class="st5" d="M1947.4,46.4c6.8,0,12.5,5.7,12.6,12.8c0,6-4,10.1-9.9,10.1c-7,0.1-14-5.8-13.9-11.7
			C1936.3,51.9,1941.8,46.4,1947.4,46.4z"/>
		<path class="st5" d="M1208,59.4c0,5.9-4.3,10-10.2,9.9c-6.8-0.1-13.8-5.8-13.6-11.4c0.2-5.1,4.1-11.3,11.7-10.6
			C1203.5,47.9,1208,51.9,1208,59.4z"/>
		<path class="st4" d="M1658,45.6c0,6.1-3.8,9.8-10,9.8c-7.6,0-13.1-4.8-13-11.3c0.1-6.8,4.4-10.7,11.6-10.6
			C1653.5,33.5,1658,38.3,1658,45.6z"/>
		<path class="st4" d="M906,45.6c0,6.1-3.8,9.8-10,9.8c-7.6,0-13.2-4.8-13.1-11.3c0.1-6.8,4.4-10.7,11.6-10.7
			C901.6,33.5,906.1,38.3,906,45.6z"/>
		<path class="st4" d="M273.1,45.3c0,6.4-3.7,10.2-10.1,10.1c-7.3-0.1-12.9-4.8-12.9-11c0-6.9,4.2-11,11.3-11
			C268.4,33.4,273.1,38.1,273.1,45.3z"/>
		<path class="st2" d="M351.4,70.3c-7.7,0-12.4-4.3-12.3-11.2c0.1-5.6,5.1-11.2,10.2-10.6c6.7,0.8,12.9,5,12.8,12.7
			C361.9,66.8,357.8,70.4,351.4,70.3z"/>
		<path class="st2" d="M984.5,70.3c-7.8,0-12.5-4.2-12.4-11.1c0-5.6,5-11.2,10.1-10.8c6.4,0.6,13,4.9,12.9,12.6
			C994.9,66.7,990.8,70.4,984.5,70.3z"/>
		<path class="st2" d="M1736.1,70.3c-7.7-0.1-12.3-4.4-12.1-11.4c0.1-5.3,5-10.8,9.9-10.5c6.1,0.4,13.1,4.7,13.1,12.4
			C1746.9,66.8,1742.7,70.4,1736.1,70.3z"/>
	</g>
</g>
</svg>
